<svg width="20" height="20" viewBox="0 0 20 20" fill="none" xmlns="http://www.w3.org/2000/svg">
<path d="M10.0001 1.66669C5.40008 1.66669 1.66675 5.40002 1.66675 10C1.66675 14.6 5.40008 18.3334 10.0001 18.3334C14.6001 18.3334 18.3334 14.6 18.3334 10C18.3334 5.40002 14.6001 1.66669 10.0001 1.66669ZM10.0001 16.6667C6.32508 16.6667 3.33341 13.675 3.33341 10C3.33341 6.32502 6.32508 3.33335 10.0001 3.33335C13.6751 3.33335 16.6667 6.32502 16.6667 10C16.6667 13.675 13.6751 16.6667 10.0001 16.6667Z" fill="#8E8E8E"/>
<path d="M13.96 9.42C14.34 9.42 14.56 9.06 14.56 8.66C14.56 8.25 14.34 7.92 13.96 7.92H13.8L14.1 6.59C14.2 6.15 13.99 5.71 13.5 5.62C13.07 5.54 12.64 5.77 12.55 6.25L12.24 7.92H11.05L10.77 6.66C10.68 6.23 10.34 6 10 6C9.65 6 9.31 6.24 9.22 6.66L8.94 7.92H7.74L7.43 6.25C7.34 5.76 6.93 5.54 6.5 5.62C6.01 5.71 5.8 6.17 5.9 6.59L6.2 7.92H6.04C5.66 7.92 5.43 8.26 5.43 8.66C5.43 9.07 5.66 9.42 6.04 9.42H6.55L7.51 13.59C7.6 13.97 7.95 14.21 8.27 14.21C8.59 14.21 8.93 14 9.02 13.58L9.93 9.42H10.07L11.04 13.59C11.14 14.01 11.46 14.21 11.78 14.21C12.11 14.21 12.45 13.97 12.54 13.59L13.47 9.42H13.96ZM8.02 9.42H8.61L8.29 10.88L8.02 9.42ZM11.38 9.42H11.97L11.7 10.88L11.38 9.42Z" fill="#8E8E8E"/>
</svg>
