<svg width="32" height="14" viewBox="0 0 32 14" fill="none" xmlns="http://www.w3.org/2000/svg">
<rect width="32" height="14" rx="7" fill="#16C59B"/>
<path d="M12.7966 4H11.1566V3.328H10.3246V4H8.66862V4.6H12.7966V4ZM9.78863 5.904C9.78863 5.576 10.1566 5.376 10.7326 5.376C11.3086 5.376 11.6766 5.576 11.6766 5.904C11.6766 6.224 11.3086 6.416 10.7326 6.416C10.1566 6.416 9.78863 6.224 9.78863 5.904ZM12.9966 7.232C12.4126 7.32 11.7806 7.36 11.1566 7.392V6.944C11.9566 6.848 12.4526 6.472 12.4526 5.904C12.4526 5.232 11.7726 4.824 10.7326 4.824C9.69263 4.824 9.01263 5.232 9.01263 5.904C9.01263 6.472 9.50863 6.856 10.3246 6.944V7.424C9.66063 7.44 9.02863 7.44 8.48463 7.44L8.58063 8.096C9.84463 8.088 11.5326 8.08 13.0606 7.808L12.9966 7.232ZM9.38063 9.256H13.3806V10.624H14.2046V8.6H9.38063V9.256ZM15.1966 5.528H14.2046V3.4H13.3806V8.28H14.2046V6.208H15.1966V5.528ZM19.788 5.208V5.88H21.068V7.696H21.892V3.392H21.068V5.208H19.788ZM20.204 6.816C19.124 6.44 18.508 5.544 18.508 4.64V4.544H20.012V3.88H16.148V4.544H17.676V4.648C17.676 5.64 17.028 6.6 15.908 7L16.332 7.656C17.188 7.352 17.796 6.712 18.116 5.92C18.42 6.616 18.996 7.184 19.796 7.464L20.204 6.816ZM19.492 9.984C18.46 9.984 17.876 9.728 17.876 9.256C17.876 8.784 18.46 8.528 19.492 8.528C20.508 8.528 21.1 8.784 21.1 9.256C21.1 9.728 20.508 9.984 19.492 9.984ZM19.492 7.888C17.98 7.888 17.052 8.4 17.052 9.256C17.052 10.12 17.98 10.624 19.492 10.624C20.996 10.624 21.924 10.12 21.924 9.256C21.924 8.4 20.996 7.888 19.492 7.888Z" fill="white"/>
</svg>
