<svg width="28" height="28" viewBox="0 0 28 28" fill="none" xmlns="http://www.w3.org/2000/svg">
<g filter="url(#filter0_d)">
<path d="M14 26C20.6274 26 26 20.6274 26 14C26 7.37258 20.6274 2 14 2C7.37258 2 2 7.37258 2 14C2 20.6274 7.37258 26 14 26Z" fill="white"/>
</g>
<path d="M14 24.8C19.9647 24.8 24.8 19.9647 24.8 14C24.8 8.03534 19.9647 3.20001 14 3.20001C8.03534 3.20001 3.20001 8.03534 3.20001 14C3.20001 19.9647 8.03534 24.8 14 24.8Z" fill="#FF7F00"/>
<path d="M17.2567 8C15.9091 8 14.6551 8.72995 14 9.90909C13.3356 8.72995 12.0909 8 10.7433 8C8.67513 8 7 9.91845 7 11.9866C7 17.1805 14 20.8021 14 20.8021C14 20.8021 21 17.1805 21 11.9866C21 9.91845 19.3249 8 17.2567 8Z" fill="white"/>
<defs>
<filter id="filter0_d" x="0" y="0" width="28" height="28" filterUnits="userSpaceOnUse" color-interpolation-filters="sRGB">
<feFlood flood-opacity="0" result="BackgroundImageFix"/>
<feColorMatrix in="SourceAlpha" type="matrix" values="0 0 0 0 0 0 0 0 0 0 0 0 0 0 0 0 0 0 127 0" result="hardAlpha"/>
<feOffset/>
<feGaussianBlur stdDeviation="1"/>
<feComposite in2="hardAlpha" operator="out"/>
<feColorMatrix type="matrix" values="0 0 0 0 0 0 0 0 0 0 0 0 0 0 0 0 0 0 0.45 0"/>
<feBlend mode="normal" in2="BackgroundImageFix" result="effect1_dropShadow"/>
<feBlend mode="normal" in="SourceGraphic" in2="effect1_dropShadow" result="shape"/>
</filter>
</defs>
</svg>
