<svg width="9" height="13" viewBox="0 0 9 13" fill="none" xmlns="http://www.w3.org/2000/svg">
<path d="M4.5 0.25C2.08125 0.25 0.125 2.20625 0.125 4.625C0.125 7.90625 4.5 12.75 4.5 12.75C4.5 12.75 8.875 7.90625 8.875 4.625C8.875 2.20625 6.91875 0.25 4.5 0.25ZM1.375 4.625C1.375 2.9 2.775 1.5 4.5 1.5C6.225 1.5 7.625 2.9 7.625 4.625C7.625 6.425 5.825 9.11875 4.5 10.8C3.2 9.13125 1.375 6.40625 1.375 4.625Z" fill="#707070"/>
<path d="M4.5 6.1875C5.36295 6.1875 6.0625 5.48794 6.0625 4.625C6.0625 3.76205 5.36295 3.0625 4.5 3.0625C3.63706 3.0625 2.9375 3.76205 2.9375 4.625C2.9375 5.48794 3.63706 6.1875 4.5 6.1875Z" fill="#707070"/>
</svg>
