<svg width="141" height="36" viewBox="0 0 141 36" fill="none" xmlns="http://www.w3.org/2000/svg">
<path d="M1.34 27.128C1.34 31.268 4.472 34.076 8.756 34.076C13.04 34.076 16.172 31.268 16.172 27.128V18.776C16.172 14.636 13.04 11.792 8.756 11.792C4.472 11.792 1.34 14.636 1.34 18.776V27.128ZM19.088 32.06C19.088 33.824 20.492 35.156 22.184 35.156C23.948 35.156 25.316 33.824 25.316 32.06V4.448C25.316 2.72 23.948 1.352 22.184 1.352C20.492 1.352 19.088 2.72 19.088 4.448V11.684H18.404C16.82 11.684 16.1 12.944 16.1 14.528C16.1 16.112 16.82 17.372 18.404 17.372H19.088V32.06ZM26.828 32.204C26.828 34.004 28.232 35.336 29.96 35.336C31.724 35.336 33.128 34.004 33.128 32.204V4.304C33.128 2.54 31.724 1.172 29.96 1.172C28.232 1.172 26.828 2.54 26.828 4.304V32.204ZM0.44 7.832C0.44 9.344 1.34 10.532 2.924 10.532H14.552C16.064 10.532 17.072 9.344 17.072 7.832C17.072 6.32 16.064 5.132 14.552 5.132H11.888V3.692C11.888 1.856 10.556 0.811998 8.756 0.811998C6.956 0.811998 5.624 1.856 5.624 3.692V5.132H2.924C1.34 5.132 0.44 6.356 0.44 7.832ZM7.208 18.668C7.208 17.66 7.82 16.976 8.756 16.976C9.692 16.976 10.304 17.66 10.304 18.668V27.236C10.304 28.208 9.692 28.892 8.756 28.892C7.82 28.892 7.208 28.208 7.208 27.236V18.668ZM36.44 31.088C36.44 32.672 37.7 33.896 39.5 33.896C40.328 33.896 41.192 33.644 41.696 33.176C44.432 30.656 46.34 28.1 47.6 24.572C48.86 28.028 50.84 30.476 53.54 32.996C54.044 33.464 54.872 33.716 55.7 33.716C57.5 33.716 58.76 32.492 58.76 30.908C58.76 29.864 58.292 29.036 57.644 28.46C53.036 24.356 50.84 19.568 50.84 11.216V10.46H55.7C57.284 10.46 58.4 9.272 58.4 7.832C58.4 6.32 57.284 5.132 55.7 5.132H50.84V3.548C50.84 2.108 49.472 0.811998 47.672 0.811998C45.8 0.811998 44.36 2.108 44.36 3.548V5.132H39.428C37.988 5.132 36.8 6.32 36.8 7.832C36.8 9.272 37.988 10.46 39.428 10.46H44.36V11.216C44.36 19.568 42.128 24.5 37.52 28.604C36.872 29.18 36.44 30.044 36.44 31.088ZM62.288 32.096C62.288 33.968 63.728 35.336 65.528 35.336C67.328 35.336 68.768 33.968 68.768 32.096V4.412C68.768 2.576 67.328 1.172 65.528 1.172C63.728 1.172 62.288 2.576 62.288 4.412V11.576H58.364C56.78 11.576 55.664 12.8 55.664 14.384C55.664 15.968 56.78 17.192 58.364 17.192H62.288V19.748H58.364C56.78 19.748 55.664 20.972 55.664 22.556C55.664 24.14 56.78 25.364 58.364 25.364H62.288V32.096ZM101.816 21.584C103.184 21.584 104.3 20.468 104.3 19.1V4.916C104.3 3.548 103.184 2.432 101.816 2.432H76.184C74.816 2.432 73.7 3.548 73.7 4.916V19.1C73.7 20.468 74.816 21.584 76.184 21.584H101.816ZM72.44 31.376C72.44 32.816 73.7 34.076 75.176 34.076H102.788C104.336 34.076 105.56 32.816 105.56 31.376C105.56 29.9 104.336 28.676 102.788 28.676H92.24V25.184C92.24 23.348 90.836 22.484 89 22.484C87.164 22.484 85.76 23.348 85.76 25.184V28.676H75.176C73.7 28.676 72.44 29.9 72.44 31.376ZM80.108 7.76H97.892V16.256H80.108V7.76ZM109.16 25.904C109.16 30.872 113.444 34.076 118.772 34.076C123.956 34.076 128.204 31.016 128.42 26.264H134.288V32.096C134.288 33.968 135.728 35.336 137.528 35.336C139.328 35.336 140.768 33.968 140.768 32.096V4.412C140.768 2.576 139.328 1.172 137.528 1.172C135.728 1.172 134.288 2.576 134.288 4.412V9.776H128.384C128.132 5.096 123.92 2.072 118.772 2.072C113.444 2.072 109.16 5.312 109.16 10.28V25.904ZM115.568 10.64C115.568 8.66 117.044 7.4 118.808 7.4C120.572 7.4 122.012 8.66 122.012 10.64V25.544C122.012 27.524 120.572 28.748 118.808 28.748C117.044 28.748 115.568 27.524 115.568 25.544V10.64ZM128.42 14.816H134.288V21.224H128.42V14.816Z" fill="black"/>
</svg>
